M48
INCH,LZ
;FILE_FORMAT=2:4
;TYPE=PLATED
;Layer: Drill PTH
;EasyEDA v6.4.25, 2021-12-20T20:28:38+01:00
;82b2acacfa44477ab4118a9698532826,b4a5f7d9b4444f23be71920c898e1340,10
;Gerber Generator version 0.2
;Holesize 1 = 0.0360 inch
T01C0.0360
%
G05
G90
T01
X002000Y037000
X003000Y037000
X004000Y037000
X005000Y037000
X006000Y037000
X007000Y037000
X008000Y037000
X009000Y037000
X010000Y037000
X011000Y037000
X012000Y037000
X013000Y037000
X002000Y031000
X003000Y031000
X004000Y031000
X005000Y031000
X006000Y031000
X007000Y031000
X008000Y031000
X009000Y031000
X010000Y031000
X011000Y031000
X012000Y031000
X013000Y031000
X027000Y031000
X026000Y031000
X025000Y031000
X024000Y031000
X023000Y031000
X022000Y031000
X021000Y031000
X020000Y031000
X019000Y031000
X018000Y031000
X017000Y031000
X016000Y031000
X027000Y037000
X026000Y037000
X025000Y037000
X024000Y037000
X023000Y037000
X022000Y037000
X021000Y037000
X020000Y037000
X019000Y037000
X018000Y037000
X017000Y037000
X016000Y037000
X027000Y032000
M30
