G04 Layer: TopLayer*
G04 EasyEDA v6.4.25, 2021-12-20T20:28:38+01:00*
G04 82b2acacfa44477ab4118a9698532826,b4a5f7d9b4444f23be71920c898e1340,10*
G04 Gerber Generator version 0.2*
G04 Scale: 100 percent, Rotated: No, Reflected: No *
G04 Dimensions in inches *
G04 leading zeros omitted , absolute positions ,3 integer and 6 decimal *
%FSLAX36Y36*%
%MOIN*%

%ADD10C,0.0100*%
%ADD11C,0.0080*%
%ADD12C,0.0600*%

%LPD*%
D11*
X275000Y3435700D02*
G01*
X275000Y3359400D01*
X275000Y3435700D02*
G01*
X307699Y3435700D01*
X318600Y3432100D01*
X322300Y3428499D01*
X325900Y3421199D01*
X325900Y3410300D01*
X322300Y3403000D01*
X318600Y3399400D01*
X307699Y3395700D01*
X275000Y3395700D01*
X349899Y3410300D02*
G01*
X349899Y3359400D01*
X349899Y3388499D02*
G01*
X353499Y3399400D01*
X360799Y3406599D01*
X368099Y3410300D01*
X379000Y3410300D01*
X421199Y3410300D02*
G01*
X413899Y3406599D01*
X406599Y3399400D01*
X403000Y3388499D01*
X403000Y3381199D01*
X406599Y3370300D01*
X413899Y3363000D01*
X421199Y3359400D01*
X432100Y3359400D01*
X439400Y3363000D01*
X446599Y3370300D01*
X450300Y3381199D01*
X450300Y3388499D01*
X446599Y3399400D01*
X439400Y3406599D01*
X432100Y3410300D01*
X421199Y3410300D01*
X530300Y3435700D02*
G01*
X530300Y3359400D01*
X530300Y3435700D02*
G01*
X559400Y3359400D01*
X588499Y3435700D02*
G01*
X559400Y3359400D01*
X588499Y3435700D02*
G01*
X588499Y3359400D01*
X612500Y3435700D02*
G01*
X616100Y3432100D01*
X619699Y3435700D01*
X616100Y3439400D01*
X612500Y3435700D01*
X616100Y3410300D02*
G01*
X616100Y3359400D01*
X687399Y3399400D02*
G01*
X680100Y3406599D01*
X672800Y3410300D01*
X661900Y3410300D01*
X654600Y3406599D01*
X647399Y3399400D01*
X643699Y3388499D01*
X643699Y3381199D01*
X647399Y3370300D01*
X654600Y3363000D01*
X661900Y3359400D01*
X672800Y3359400D01*
X680100Y3363000D01*
X687399Y3370300D01*
X711399Y3410300D02*
G01*
X711399Y3359400D01*
X711399Y3388499D02*
G01*
X715000Y3399400D01*
X722300Y3406599D01*
X729499Y3410300D01*
X740500Y3410300D01*
X782600Y3410300D02*
G01*
X775399Y3406599D01*
X768100Y3399400D01*
X764499Y3388499D01*
X764499Y3381199D01*
X768100Y3370300D01*
X775399Y3363000D01*
X782600Y3359400D01*
X793500Y3359400D01*
X800799Y3363000D01*
X808100Y3370300D01*
X811700Y3381199D01*
X811700Y3388499D01*
X808100Y3399400D01*
X800799Y3406599D01*
X793500Y3410300D01*
X782600Y3410300D01*
X1575000Y3430700D02*
G01*
X1575000Y3376199D01*
X1578599Y3365300D01*
X1585900Y3358000D01*
X1596800Y3354400D01*
X1604099Y3354400D01*
X1615000Y3358000D01*
X1622299Y3365300D01*
X1625900Y3376199D01*
X1625900Y3430700D01*
X1700799Y3419800D02*
G01*
X1693500Y3427100D01*
X1682600Y3430700D01*
X1668100Y3430700D01*
X1657200Y3427100D01*
X1649899Y3419800D01*
X1649899Y3412500D01*
X1653500Y3405300D01*
X1657200Y3401599D01*
X1664499Y3398000D01*
X1686300Y3390700D01*
X1693500Y3387100D01*
X1697200Y3383499D01*
X1700799Y3376199D01*
X1700799Y3365300D01*
X1693500Y3358000D01*
X1682600Y3354400D01*
X1668100Y3354400D01*
X1657200Y3358000D01*
X1649899Y3365300D01*
X1724799Y3430700D02*
G01*
X1724799Y3354400D01*
X1724799Y3430700D02*
G01*
X1757500Y3430700D01*
X1768500Y3427100D01*
X1772100Y3423499D01*
X1775699Y3416199D01*
X1775699Y3408899D01*
X1772100Y3401599D01*
X1768500Y3398000D01*
X1757500Y3394400D01*
X1724799Y3394400D02*
G01*
X1757500Y3394400D01*
X1768500Y3390700D01*
X1772100Y3387100D01*
X1775699Y3379800D01*
X1775699Y3368899D01*
X1772100Y3361599D01*
X1768500Y3358000D01*
X1757500Y3354400D01*
X1724799Y3354400D01*
X1855699Y3430700D02*
G01*
X1855699Y3354400D01*
X1906599Y3430700D02*
G01*
X1906599Y3354400D01*
X1855699Y3394400D02*
G01*
X1906599Y3394400D01*
X1948800Y3405300D02*
G01*
X1941499Y3401599D01*
X1934300Y3394400D01*
X1930600Y3383499D01*
X1930600Y3376199D01*
X1934300Y3365300D01*
X1941499Y3358000D01*
X1948800Y3354400D01*
X1959700Y3354400D01*
X1966999Y3358000D01*
X1974300Y3365300D01*
X1977899Y3376199D01*
X1977899Y3383499D01*
X1974300Y3394400D01*
X1966999Y3401599D01*
X1959700Y3405300D01*
X1948800Y3405300D01*
X2041899Y3394400D02*
G01*
X2038299Y3401599D01*
X2027399Y3405300D01*
X2016499Y3405300D01*
X2005500Y3401599D01*
X2001899Y3394400D01*
X2005500Y3387100D01*
X2012799Y3383499D01*
X2031000Y3379800D01*
X2038299Y3376199D01*
X2041899Y3368899D01*
X2041899Y3365300D01*
X2038299Y3358000D01*
X2027399Y3354400D01*
X2016499Y3354400D01*
X2005500Y3358000D01*
X2001899Y3365300D01*
X2076800Y3430700D02*
G01*
X2076800Y3368899D01*
X2080500Y3358000D01*
X2087700Y3354400D01*
X2095000Y3354400D01*
X2065900Y3405300D02*
G01*
X2091400Y3405300D01*
X2204099Y3430700D02*
G01*
X2175000Y3354400D01*
X2204099Y3430700D02*
G01*
X2233199Y3354400D01*
X2185900Y3379800D02*
G01*
X2222299Y3379800D01*
X2300799Y3430700D02*
G01*
X2300799Y3354400D01*
X2300799Y3394400D02*
G01*
X2293500Y3401599D01*
X2286300Y3405300D01*
X2275399Y3405300D01*
X2268100Y3401599D01*
X2260799Y3394400D01*
X2257200Y3383499D01*
X2257200Y3376199D01*
X2260799Y3365300D01*
X2268100Y3358000D01*
X2275399Y3354400D01*
X2286300Y3354400D01*
X2293500Y3358000D01*
X2300799Y3365300D01*
X2368500Y3405300D02*
G01*
X2368500Y3354400D01*
X2368500Y3394400D02*
G01*
X2361199Y3401599D01*
X2353900Y3405300D01*
X2343000Y3405300D01*
X2335699Y3401599D01*
X2328500Y3394400D01*
X2324799Y3383499D01*
X2324799Y3376199D01*
X2328500Y3365300D01*
X2335699Y3358000D01*
X2343000Y3354400D01*
X2353900Y3354400D01*
X2361199Y3358000D01*
X2368500Y3365300D01*
X2392500Y3405300D02*
G01*
X2392500Y3328899D01*
X2392500Y3394400D02*
G01*
X2399700Y3401599D01*
X2406999Y3405300D01*
X2417899Y3405300D01*
X2425200Y3401599D01*
X2432500Y3394400D01*
X2436099Y3383499D01*
X2436099Y3376199D01*
X2432500Y3365300D01*
X2425200Y3358000D01*
X2417899Y3354400D01*
X2406999Y3354400D01*
X2399700Y3358000D01*
X2392500Y3365300D01*
X2471000Y3430700D02*
G01*
X2471000Y3368899D01*
X2474600Y3358000D01*
X2481899Y3354400D01*
X2489200Y3354400D01*
X2460100Y3405300D02*
G01*
X2485500Y3405300D01*
X2513199Y3383499D02*
G01*
X2556800Y3383499D01*
X2556800Y3390700D01*
X2553199Y3398000D01*
X2549499Y3401599D01*
X2542299Y3405300D01*
X2531400Y3405300D01*
X2524099Y3401599D01*
X2516800Y3394400D01*
X2513199Y3383499D01*
X2513199Y3376199D01*
X2516800Y3365300D01*
X2524099Y3358000D01*
X2531400Y3354400D01*
X2542299Y3354400D01*
X2549499Y3358000D01*
X2556800Y3365300D01*
X2580799Y3405300D02*
G01*
X2580799Y3354400D01*
X2580799Y3383499D02*
G01*
X2584499Y3394400D01*
X2591700Y3401599D01*
X2598999Y3405300D01*
X2609899Y3405300D01*
X1065000Y3590700D02*
G01*
X1065000Y3514400D01*
X1065000Y3590700D02*
G01*
X1115900Y3514400D01*
X1115900Y3590700D02*
G01*
X1115900Y3514400D01*
X1139899Y3543499D02*
G01*
X1183500Y3543499D01*
X1183500Y3550700D01*
X1179899Y3558000D01*
X1176300Y3561599D01*
X1168999Y3565300D01*
X1158100Y3565300D01*
X1150799Y3561599D01*
X1143500Y3554400D01*
X1139899Y3543499D01*
X1139899Y3536199D01*
X1143500Y3525300D01*
X1150799Y3518000D01*
X1158100Y3514400D01*
X1168999Y3514400D01*
X1176300Y3518000D01*
X1183500Y3525300D01*
X1225699Y3565300D02*
G01*
X1218500Y3561599D01*
X1211199Y3554400D01*
X1207500Y3543499D01*
X1207500Y3536199D01*
X1211199Y3525300D01*
X1218500Y3518000D01*
X1225699Y3514400D01*
X1236599Y3514400D01*
X1243900Y3518000D01*
X1251199Y3525300D01*
X1254799Y3536199D01*
X1254799Y3543499D01*
X1251199Y3554400D01*
X1243900Y3561599D01*
X1236599Y3565300D01*
X1225699Y3565300D01*
X1282500Y3572500D02*
G01*
X1282500Y3576199D01*
X1286099Y3583499D01*
X1289700Y3587100D01*
X1296999Y3590700D01*
X1311499Y3590700D01*
X1318800Y3587100D01*
X1322500Y3583499D01*
X1326099Y3576199D01*
X1326099Y3568899D01*
X1322500Y3561599D01*
X1315200Y3550700D01*
X1278800Y3514400D01*
X1329700Y3514400D01*
X1409700Y3565300D02*
G01*
X1431499Y3514400D01*
X1453400Y3565300D02*
G01*
X1431499Y3514400D01*
X1477399Y3576199D02*
G01*
X1484600Y3579800D01*
X1495500Y3590700D01*
X1495500Y3514400D01*
X1523199Y3532500D02*
G01*
X1519499Y3528899D01*
X1523199Y3525300D01*
X1526800Y3528899D01*
X1523199Y3532500D01*
X1572600Y3590700D02*
G01*
X1561700Y3587100D01*
X1554499Y3576199D01*
X1550799Y3558000D01*
X1550799Y3547100D01*
X1554499Y3528899D01*
X1561700Y3518000D01*
X1572600Y3514400D01*
X1579899Y3514400D01*
X1590799Y3518000D01*
X1598100Y3528899D01*
X1601700Y3547100D01*
X1601700Y3558000D01*
X1598100Y3576199D01*
X1590799Y3587100D01*
X1579899Y3590700D01*
X1572600Y3590700D01*
D10*
X2700000Y3199998D02*
G01*
X1319620Y3199998D01*
X916340Y3603279D01*
X296720Y3603279D01*
X200000Y3699998D01*
X300000Y3699998D02*
G01*
X360569Y3639429D01*
X1639430Y3639429D01*
X1700000Y3699998D01*
X1900000Y3699998D02*
G01*
X1854700Y3745299D01*
X1524089Y3745299D01*
X1434330Y3655538D01*
X544459Y3655538D01*
X500000Y3699998D01*
X2500000Y3699998D02*
G01*
X2406369Y3793629D01*
X1193630Y3793629D01*
X1100000Y3699998D01*
X2600000Y3699998D02*
G01*
X2558680Y3658679D01*
X2479629Y3658679D01*
X2450000Y3688308D01*
X2450000Y3709439D01*
X2381920Y3777519D01*
X1277520Y3777519D01*
X1200000Y3699998D01*
X2700000Y3699998D02*
G01*
X2639420Y3639418D01*
X2397529Y3639418D01*
X2350010Y3686939D01*
X2350010Y3709398D01*
X2298000Y3761408D01*
X1361409Y3761408D01*
X1300000Y3699998D01*
X1900000Y3099998D02*
G01*
X1858900Y3141098D01*
X541100Y3141098D01*
X500000Y3099998D01*
X2700000Y3099998D02*
G01*
X2656090Y3056089D01*
X1343909Y3056089D01*
X1300000Y3099998D01*
D12*
G01*
X200000Y3700000D03*
G01*
X300000Y3700000D03*
G01*
X400000Y3700000D03*
G01*
X500000Y3700000D03*
G01*
X600000Y3700000D03*
G01*
X700000Y3700000D03*
G01*
X800000Y3700000D03*
G01*
X900000Y3700000D03*
G01*
X1000000Y3700000D03*
G01*
X1100000Y3700000D03*
G01*
X1200000Y3700000D03*
G01*
X1300000Y3700000D03*
G01*
X200000Y3100000D03*
G01*
X300000Y3100000D03*
G01*
X400000Y3100000D03*
G01*
X500000Y3100000D03*
G01*
X600000Y3100000D03*
G01*
X700000Y3100000D03*
G01*
X800000Y3100000D03*
G01*
X900000Y3100000D03*
G01*
X1000000Y3100000D03*
G01*
X1100000Y3100000D03*
G01*
X1200000Y3100000D03*
G01*
X1300000Y3100000D03*
G01*
X2700000Y3100000D03*
G01*
X2600000Y3100000D03*
G01*
X2500000Y3100000D03*
G01*
X2400000Y3100000D03*
G01*
X2300000Y3100000D03*
G01*
X2200000Y3100000D03*
G01*
X2100000Y3100000D03*
G01*
X2000000Y3100000D03*
G01*
X1900000Y3100000D03*
G01*
X1800000Y3100000D03*
G01*
X1700000Y3100000D03*
G01*
X1600000Y3100000D03*
G01*
X2700000Y3700000D03*
G01*
X2600000Y3700000D03*
G01*
X2500000Y3700000D03*
G01*
X2400000Y3700000D03*
G01*
X2300000Y3700000D03*
G01*
X2200000Y3700000D03*
G01*
X2100000Y3700000D03*
G01*
X2000000Y3700000D03*
G01*
X1900000Y3700000D03*
G01*
X1800000Y3700000D03*
G01*
X1700000Y3700000D03*
G01*
X1600000Y3700000D03*
G01*
X2700000Y3200000D03*
M02*
