G04 Layer: BottomLayer*
G04 EasyEDA v6.4.25, 2021-12-20T20:28:38+01:00*
G04 9adf3931234744f2be4d511116bedf97,b4a5f7d9b4444f23be71920c898e1340,10*
G04 Gerber Generator version 0.2*
G04 Scale: 100 percent, Rotated: No, Reflected: No *
G04 Dimensions in inches *
G04 leading zeros omitted , absolute positions ,3 integer and 6 decimal *
%FSLAX36Y36*%
%MOIN*%

%ADD10C,0.0100*%
%ADD12C,0.0600*%

%LPD*%
D10*
X1900000Y3700000D02*
G01*
X1900000Y3200000D01*
X1800000Y3100000D01*
X2500000Y3700000D02*
G01*
X2441149Y3758850D01*
X1158850Y3758850D01*
X1100000Y3700000D01*
X2600000Y3700000D02*
G01*
X2553969Y3653969D01*
X2481639Y3653969D01*
X2450000Y3685610D01*
X2450000Y3709439D01*
X2416700Y3742739D01*
X1242740Y3742739D01*
X1200000Y3700000D01*
X2700000Y3100000D02*
G01*
X2658599Y3058600D01*
X1341400Y3058600D01*
X1300000Y3100000D01*
D12*
G01*
X200000Y3700000D03*
G01*
X300000Y3700000D03*
G01*
X400000Y3700000D03*
G01*
X500000Y3700000D03*
G01*
X600000Y3700000D03*
G01*
X700000Y3700000D03*
G01*
X800000Y3700000D03*
G01*
X900000Y3700000D03*
G01*
X1000000Y3700000D03*
G01*
X1100000Y3700000D03*
G01*
X1200000Y3700000D03*
G01*
X1300000Y3700000D03*
G01*
X200000Y3100000D03*
G01*
X300000Y3100000D03*
G01*
X400000Y3100000D03*
G01*
X500000Y3100000D03*
G01*
X600000Y3100000D03*
G01*
X700000Y3100000D03*
G01*
X800000Y3100000D03*
G01*
X900000Y3100000D03*
G01*
X1000000Y3100000D03*
G01*
X1100000Y3100000D03*
G01*
X1200000Y3100000D03*
G01*
X1300000Y3100000D03*
G01*
X2700000Y3100000D03*
G01*
X2600000Y3100000D03*
G01*
X2500000Y3100000D03*
G01*
X2400000Y3100000D03*
G01*
X2300000Y3100000D03*
G01*
X2200000Y3100000D03*
G01*
X2100000Y3100000D03*
G01*
X2000000Y3100000D03*
G01*
X1900000Y3100000D03*
G01*
X1800000Y3100000D03*
G01*
X1700000Y3100000D03*
G01*
X1600000Y3100000D03*
G01*
X2700000Y3700000D03*
G01*
X2600000Y3700000D03*
G01*
X2500000Y3700000D03*
G01*
X2400000Y3700000D03*
G01*
X2300000Y3700000D03*
G01*
X2200000Y3700000D03*
G01*
X2100000Y3700000D03*
G01*
X2000000Y3700000D03*
G01*
X1900000Y3700000D03*
G01*
X1800000Y3700000D03*
G01*
X1700000Y3700000D03*
G01*
X1600000Y3700000D03*
G01*
X2700000Y3200000D03*
M02*
